<?xml version="1.0" standalone="no"?>
<!DOCTYPE svg PUBLIC "-//W3C//DTD SVG 20010904//EN"
 "http://www.w3.org/TR/2001/REC-SVG-20010904/DTD/svg10.dtd">
<svg version="1.0" xmlns="http://www.w3.org/2000/svg"
 width="1080.000000pt" height="1350.000000pt" viewBox="0 0 1080.000000 1350.000000"
 preserveAspectRatio="xMidYMid meet">

<g transform="translate(0.000000,1350.000000) scale(0.100000,-0.100000)"
fill="#000000" stroke="none">
<path d="M1094 8057 c-50 -50 -54 -66 -54 -206 0 -98 -3 -131 -12 -131 -7 0
-61 36 -120 80 -59 44 -128 87 -154 96 -43 14 -49 14 -78 -1 -17 -10 -56 -51
-85 -92 -30 -41 -59 -80 -66 -86 -6 -7 -20 -25 -30 -42 -11 -16 -41 -58 -67
-91 -42 -54 -48 -68 -48 -109 0 -59 9 -68 205 -210 83 -60 151 -112 153 -117
2 -4 9 -8 15 -8 19 -1 57 -37 57 -53 0 -13 -47 -53 -125 -107 -23 -16 -103
-74 -120 -87 -5 -5 -35 -26 -65 -47 -104 -74 -120 -94 -120 -148 0 -32 6 -55
18 -67 9 -11 33 -43 52 -71 19 -28 42 -59 50 -69 8 -10 44 -59 80 -109 76
-106 111 -127 172 -106 33 11 101 52 138 81 62 51 136 101 142 97 5 -3 8 -64
8 -135 0 -143 8 -172 59 -208 27 -20 42 -21 263 -21 l234 0 34 29 35 29 3 152
c4 137 6 151 21 147 9 -2 65 -39 123 -81 188 -136 221 -133 343 36 158 219
185 261 185 291 0 42 -25 77 -86 122 -30 22 -70 51 -88 65 -19 14 -86 63 -150
109 -64 47 -116 90 -116 96 0 11 148 125 332 255 137 98 141 141 27 286 -27
34 -49 67 -49 73 0 6 -3 11 -7 11 -5 0 -35 38 -68 85 -73 102 -110 125 -171
104 -22 -7 -46 -19 -55 -26 -8 -7 -20 -13 -26 -13 -6 0 -13 -4 -15 -8 -5 -14
-171 -132 -185 -132 -10 0 -13 29 -13 124 0 143 -5 178 -31 203 -44 44 -40 43
-281 42 l-233 0 -31 -32z m504 -37 c21 -20 22 -28 22 -200 0 -154 2 -180 15
-180 13 0 191 122 205 140 3 4 20 15 38 25 17 11 32 22 32 26 0 3 18 14 40 24
40 18 41 18 67 -1 35 -27 272 -354 273 -377 0 -34 -34 -69 -159 -159 -121 -88
-215 -157 -273 -200 -35 -26 -35 -41 -1 -64 15 -9 32 -21 38 -26 11 -9 101
-76 167 -124 24 -17 78 -57 121 -89 88 -64 112 -102 94 -144 -10 -23 -102
-155 -161 -233 -12 -14 -34 -45 -50 -67 -16 -22 -43 -47 -59 -55 -36 -17 -25
-23 -218 116 -76 54 -144 98 -153 98 -14 0 -16 -21 -16 -174 0 -160 -2 -175
-21 -200 l-20 -26 -229 0 -229 0 -20 26 c-19 25 -21 40 -21 200 0 166 -1 174
-19 174 -11 0 -23 -5 -26 -10 -4 -6 -21 -21 -40 -33 -18 -12 -68 -49 -111 -82
-44 -32 -98 -70 -121 -83 -41 -23 -43 -23 -72 -6 -17 10 -45 38 -63 64 -18 25
-40 54 -50 64 -10 11 -18 23 -18 27 0 4 -6 14 -13 21 -7 7 -37 46 -66 87 -73
101 -75 137 -11 194 25 22 61 50 81 62 20 13 42 29 50 37 8 7 74 56 147 108
72 52 132 100 132 107 0 6 -15 21 -32 32 -18 11 -46 32 -62 46 -16 14 -32 25
-36 25 -3 0 -15 8 -26 18 -10 10 -80 62 -154 115 -141 103 -165 131 -149 176
10 24 100 153 126 179 7 7 13 16 13 20 0 4 12 21 26 37 14 17 32 42 40 56 18
35 71 79 94 79 18 0 312 -204 318 -221 2 -5 12 -9 23 -9 18 0 19 9 19 174 0
160 2 175 21 200 l20 26 228 0 c215 0 228 -1 249 -20z"/>
<path d="M1349 7773 c-31 -22 -39 -33 -39 -61 0 -13 -15 -37 -34 -55 -45 -43
-61 -72 -76 -134 -8 -37 -9 -61 -1 -85 6 -18 13 -46 16 -61 3 -17 28 -50 55
-76 50 -48 50 -48 50 -112 0 -54 -5 -71 -30 -108 -48 -71 -40 -173 18 -234 36
-38 38 -110 4 -147 -53 -57 -51 -163 4 -221 13 -14 24 -34 24 -46 0 -11 8 -31
19 -44 l18 -23 18 27 c10 16 26 27 40 27 36 0 38 26 5 64 -26 29 -30 42 -30
91 0 51 4 61 35 98 31 36 35 47 35 100 0 49 -5 66 -29 100 -54 77 -51 168 9
222 33 30 50 69 50 115 0 47 -10 71 -51 118 -31 35 -35 65 -23 169 6 48 9 53
40 63 18 6 36 19 39 29 6 21 -10 71 -23 71 -19 0 -52 39 -58 67 -3 18 -17 36
-33 46 -26 15 -30 15 -52 0z m49 -45 c19 -19 14 -37 -14 -44 -31 -8 -48 7 -39
35 7 23 34 28 53 9z m57 -84 c24 -16 40 -43 30 -52 -3 -4 -36 -8 -73 -10 -73
-5 -105 -26 -118 -78 -8 -32 12 -103 32 -111 9 -3 14 -19 14 -44 0 -46 -18
-51 -54 -16 -43 42 -56 74 -56 137 0 77 26 129 83 171 35 26 48 30 80 25 21
-4 49 -13 62 -22z m-51 -144 c-1 -36 -5 -128 -9 -204 -6 -109 -5 -137 4 -132
9 6 11 26 6 70 -7 75 4 99 34 72 29 -27 44 -88 32 -131 -5 -20 -29 -54 -53
-78 -63 -61 -78 -90 -78 -144 0 -35 3 -44 10 -33 5 8 10 35 10 58 0 30 4 42
13 40 8 -3 13 -32 15 -86 3 -74 5 -81 24 -84 15 -2 24 -13 31 -37 14 -57 1
-93 -53 -144 -41 -39 -50 -53 -50 -82 0 -18 5 -37 10 -40 12 -7 14 -45 2 -45
-23 0 -47 48 -47 95 0 47 3 54 53 104 54 56 56 61 46 99 -7 24 -20 29 -27 10
-2 -7 -2 -1 0 14 4 24 -1 30 -31 45 -29 13 -38 26 -49 62 -20 69 -1 126 61
183 24 24 29 44 10 51 -9 3 -13 35 -13 113 -1 60 -5 147 -9 193 -9 89 -4 104
39 99 18 -3 20 -10 19 -68z"/>
<path d="M6622 8063 c-50 -7 -107 -16 -125 -21 l-32 -8 -3 -732 -2 -732 22 -5
c13 -3 75 -4 138 -3 l115 3 5 362 5 362 30 31 c62 64 145 93 195 67 53 -27 55
-42 60 -447 l5 -375 135 0 135 0 3 370 c2 295 -1 388 -13 458 -30 173 -85 231
-231 244 -56 4 -84 2 -125 -13 -51 -18 -159 -90 -159 -106 0 -5 -9 -8 -20 -8
-20 0 -20 7 -20 274 0 207 -3 276 -12 283 -8 6 -48 4 -106 -4z"/>
<path d="M2960 7634 c-87 -15 -179 -63 -232 -120 -32 -35 -81 -132 -96 -194
-23 -89 -32 -246 -21 -353 11 -108 26 -165 61 -235 82 -164 305 -236 514 -166
132 44 151 67 118 142 -9 21 -22 51 -29 68 l-14 32 -51 -25 c-38 -18 -68 -24
-121 -25 -63 0 -74 3 -106 28 -70 57 -93 130 -93 297 0 164 18 234 75 293 31
33 50 43 86 48 42 6 156 -6 193 -20 10 -4 17 2 20 18 36 180 36 177 -29 194
-52 14 -231 26 -275 18z"/>
<path d="M3755 7634 c-130 -31 -175 -53 -228 -110 -43 -46 -96 -147 -109 -207
-27 -124 -27 -330 0 -455 13 -58 65 -159 104 -203 72 -78 181 -118 323 -118
173 0 282 52 365 174 24 36 45 91 70 180 23 85 19 299 -8 423 -17 75 -69 168
-123 216 -48 43 -65 53 -143 85 -31 13 -216 24 -251 15z m158 -214 c66 -39
100 -154 100 -335 0 -228 -57 -344 -168 -344 -57 0 -97 29 -130 94 l-30 60 0
195 0 195 30 59 c46 92 122 121 198 76z"/>
<path d="M4720 7634 c-92 -16 -142 -27 -188 -42 -52 -16 -53 -18 -48 -47 3
-16 9 -56 12 -88 4 -32 11 -60 15 -63 5 -3 30 2 56 10 60 19 158 36 204 36 42
0 129 -41 147 -70 7 -12 16 -50 19 -84 l6 -63 -109 -7 c-268 -18 -382 -92
-420 -273 -15 -72 -16 -93 -5 -150 31 -170 120 -252 272 -253 89 0 157 27 221
88 21 20 39 34 41 31 2 -2 8 -24 13 -49 l9 -45 105 -3 c58 -2 115 0 128 3 l23
6 -4 377 c-2 207 -8 397 -14 422 -27 128 -99 209 -223 249 -36 12 -218 23
-260 15z m218 -694 l3 -115 -34 -33 c-19 -18 -54 -39 -79 -47 -40 -12 -49 -11
-85 5 -52 23 -73 64 -73 142 0 120 56 167 195 165 l70 -2 3 -115z"/>
<path d="M5900 7633 c-14 -2 -29 -9 -34 -14 -6 -5 -17 -9 -27 -9 -9 0 -46 -27
-82 -60 -36 -33 -68 -60 -71 -60 -3 0 -6 13 -6 29 0 16 -3 43 -6 60 l-6 31
-124 0 -124 0 0 -747 c0 -412 4 -754 8 -761 7 -9 40 -12 133 -10 l124 3 3 224
c1 134 7 229 13 237 8 9 22 9 67 -2 215 -51 390 28 474 215 17 35 34 87 40
115 17 78 21 332 8 401 -45 225 -144 342 -299 350 -36 2 -77 1 -91 -2z m8
-237 c37 -19 68 -54 86 -97 21 -49 30 -237 17 -337 -15 -115 -43 -169 -106
-202 -88 -45 -199 -27 -210 34 -4 17 -5 138 -3 269 l3 238 45 42 c66 62 119
79 168 53z"/>
<path d="M7623 7613 c-42 -9 -63 -49 -63 -122 0 -85 23 -127 75 -137 39 -7 90
9 80 26 -3 6 -17 10 -31 10 -39 0 -74 45 -74 94 1 54 27 89 68 88 27 -1 52 22
38 35 -7 7 -70 11 -93 6z"/>
<path d="M7802 7612 c-56 -17 -83 -142 -47 -213 28 -54 110 -63 152 -16 37 40
39 160 4 205 -17 22 -72 35 -109 24z m54 -50 c6 -4 17 -23 24 -43 11 -32 11
-41 -6 -75 -14 -29 -24 -38 -39 -36 -30 5 -45 31 -45 77 0 61 33 99 66 77z"/>
<path d="M8020 7607 c-30 -15 -60 -71 -60 -112 0 -16 8 -51 17 -77 14 -39 23
-50 50 -59 82 -27 133 20 133 124 0 79 -21 123 -63 131 -41 8 -48 7 -77 -7z
m74 -59 c35 -50 10 -152 -34 -141 -30 8 -43 40 -37 96 6 67 41 89 71 45z"/>
<path d="M8210 7485 c0 -117 1 -125 19 -125 16 0 20 8 23 37 3 33 7 38 36 44
52 11 72 35 72 89 0 63 -19 80 -93 80 l-57 0 0 -125z m88 73 c17 -17 15 -44
-4 -63 -29 -28 -56 13 -38 59 7 19 25 21 42 4z"/>
<path d="M8400 7485 l0 -126 68 3 c70 3 87 19 30 28 -30 5 -33 8 -33 40 0 31
3 35 28 38 37 4 33 36 -6 40 -22 3 -27 8 -27 32 0 26 4 29 37 32 27 2 39 8 41
21 3 15 -5 17 -67 17 l-71 0 0 -125z"/>
<path d="M8584 7597 c-2 -7 -3 -62 -2 -123 3 -101 4 -109 23 -109 15 0 21 8
25 35 5 38 32 49 38 15 6 -29 32 -55 55 -55 21 0 20 6 -4 67 -11 28 -11 34 4
51 23 26 23 94 -1 115 -23 21 -130 24 -138 4z m106 -62 c0 -7 -8 -19 -18 -28
-22 -20 -42 -6 -42 28 0 34 20 48 42 28 10 -9 18 -21 18 -28z"/>
<path d="M8837 7603 c-5 -8 -54 -178 -64 -220 -7 -30 19 -31 55 -2 29 22 67
19 87 -8 6 -8 20 -13 31 -11 14 3 18 11 16 33 -1 17 -6 39 -11 50 -9 23 -30
96 -38 138 -4 23 -10 27 -39 27 -18 0 -35 -3 -37 -7z m53 -129 c0 -27 -4 -34
-19 -34 -28 0 -32 12 -14 48 19 39 33 33 33 -14z"/>
<path d="M8970 7595 c0 -9 11 -20 25 -25 24 -9 25 -12 25 -110 l0 -100 25 0
c25 0 25 0 25 99 l0 99 30 12 c17 7 30 19 30 26 0 11 -19 14 -80 14 -65 0 -80
-3 -80 -15z"/>
<path d="M9170 7485 c0 -118 1 -125 20 -125 19 0 20 7 20 125 0 118 -1 125
-20 125 -19 0 -20 -7 -20 -125z"/>
<path d="M9250 7602 c0 -5 8 -35 19 -68 10 -32 22 -72 25 -89 13 -61 28 -85
51 -85 27 0 41 15 48 55 3 17 13 55 22 85 30 99 31 110 2 110 -26 0 -36 -25
-52 -125 l-7 -40 -16 30 c-10 17 -22 53 -27 80 -9 44 -14 50 -38 53 -15 2 -27
-1 -27 -6z"/>
<path d="M9506 7598 c-12 -38 -29 -107 -33 -136 -3 -18 -9 -35 -14 -38 -5 -3
-9 -18 -9 -35 0 -22 5 -29 20 -29 11 0 23 6 26 14 10 26 55 29 85 7 16 -12 36
-21 45 -21 20 0 17 25 -19 155 l-24 90 -37 3 c-23 2 -38 -1 -40 -10z m60 -114
c8 -29 -7 -49 -30 -41 -19 7 -21 38 -4 55 18 18 27 15 34 -14z"/>
<path d="M10066 7215 c-10 -8 -23 -16 -28 -17 -5 -2 -15 -28 -23 -58 -26 -100
14 -180 91 -180 64 0 87 24 92 98 7 92 -3 129 -41 152 -38 23 -65 25 -91 5z
m74 -64 c5 -11 10 -38 10 -61 0 -54 -15 -80 -45 -80 -18 0 -26 8 -35 34 -12
38 -4 106 14 118 20 14 45 8 56 -11z"/>
<path d="M7582 7212 c-9 -7 -12 -39 -10 -128 l3 -119 52 -3 c29 -2 62 2 74 8
67 36 63 214 -6 240 -32 12 -95 13 -113 2z m106 -117 c3 -61 -8 -85 -39 -85
-17 0 -19 8 -19 78 0 43 3 82 7 85 3 4 16 1 27 -7 16 -10 22 -26 24 -71z"/>
<path d="M7797 7213 c-4 -3 -7 -62 -7 -130 l0 -123 70 0 c68 0 70 1 70 25 0
23 -4 25 -40 25 -26 0 -43 5 -46 14 -8 22 13 54 38 58 28 4 29 22 2 26 -57 10
-47 72 11 72 28 0 35 4 35 20 0 18 -7 20 -63 20 -35 0 -67 -3 -70 -7z"/>
<path d="M8108 7208 c-9 -7 -18 -26 -21 -43 -3 -16 -14 -63 -26 -102 -12 -40
-21 -80 -21 -88 0 -24 36 -17 54 10 22 33 60 33 82 -1 11 -16 24 -24 38 -22
24 3 24 11 1 93 -9 33 -21 78 -26 100 -16 63 -44 82 -81 53z m46 -145 c-6 -9
-15 -18 -21 -20 -15 -5 -26 32 -18 58 l7 21 21 -21 c17 -16 19 -25 11 -38z"/>
<path d="M8245 7209 c-4 -6 4 -20 19 -33 24 -20 26 -27 28 -116 3 -87 5 -95
23 -95 19 0 20 8 23 103 3 100 3 103 28 112 14 6 24 16 22 23 -6 16 -134 22
-143 6z"/>
<path d="M8441 7207 c-8 -10 -11 -51 -9 -128 l3 -114 63 -3 c61 -3 62 -2 62
23 0 22 -4 25 -35 25 -32 0 -35 2 -35 30 0 23 6 33 25 40 31 12 32 28 3 32
-18 2 -23 10 -23 33 0 27 4 30 33 33 25 3 32 8 30 20 -4 23 -99 30 -117 9z"/>
<path d="M8615 7208 c-3 -8 -4 -66 -3 -129 3 -106 4 -114 23 -114 17 0 20 8
23 53 2 31 7 52 13 50 6 -2 23 -26 38 -53 21 -39 33 -50 52 -50 24 0 24 1 27
115 2 119 -4 147 -32 137 -12 -5 -16 -20 -16 -60 0 -30 -3 -57 -7 -60 -4 -4
-23 21 -43 55 -35 62 -65 83 -75 56z"/>
<path d="M8844 7207 c-2 -7 -3 -65 -2 -128 l3 -114 55 -3 c50 -3 58 0 83 26
56 58 43 199 -20 223 -37 14 -113 11 -119 -4z m108 -61 c36 -43 10 -136 -37
-136 -24 0 -25 2 -25 78 0 43 3 81 6 85 9 9 37 -4 56 -27z"/>
<path d="M9065 7198 c-3 -13 -5 -70 -3 -128 3 -100 4 -105 26 -108 22 -3 22
-3 22 127 0 124 -1 131 -20 131 -12 0 -22 -9 -25 -22z"/>
<path d="M9176 7208 c-3 -7 -7 -44 -10 -83 -3 -38 -9 -92 -12 -118 -7 -47 -6
-49 17 -45 19 2 26 12 35 47 13 56 30 63 38 16 10 -51 42 -48 64 5 9 22 20 40
23 40 4 0 10 -25 14 -56 6 -49 9 -55 28 -52 21 3 22 7 19 88 -4 126 -11 158
-33 165 -28 9 -35 1 -55 -65 -11 -33 -22 -60 -25 -60 -9 0 -39 69 -39 90 0 30
-56 54 -64 28z"/>
<path d="M9445 7198 c-3 -13 -5 -70 -3 -128 l3 -105 60 0 c53 0 60 2 60 20 0
15 -8 21 -35 25 -29 4 -35 9 -35 30 0 18 9 29 33 40 33 16 34 30 1 30 -10 0
-23 9 -29 21 -14 26 1 47 38 51 16 2 27 9 27 18 0 11 -14 16 -57 18 -53 3 -58
1 -63 -20z"/>
<path d="M9624 7207 c-2 -7 -3 -65 -2 -127 3 -100 5 -115 21 -118 14 -3 17 4
17 35 0 43 9 83 19 83 3 0 21 -27 39 -60 23 -42 39 -60 53 -60 19 0 19 7 17
127 -3 112 -5 128 -20 131 -15 3 -18 -4 -18 -45 0 -26 -4 -55 -10 -63 -10 -16
-9 -18 -35 35 -33 69 -68 96 -81 62z"/>
<path d="M9840 7211 c-8 -6 -12 -12 -10 -13 3 -2 17 -12 32 -21 26 -16 27 -21
30 -114 3 -90 5 -98 23 -98 18 0 20 8 25 105 5 100 6 105 28 108 15 2 22 9 20
20 -3 14 -17 18 -68 20 -36 1 -72 -2 -80 -7z"/>
<path d="M8038 6905 c-21 -28 -23 -45 -5 -45 19 0 47 33 47 53 0 24 -22 20
-42 -8z"/>
<path d="M7582 6822 c-9 -7 -12 -40 -10 -133 3 -116 4 -124 23 -124 16 0 21 8
23 35 3 39 24 60 58 60 28 0 54 40 54 83 0 50 -40 87 -94 87 -22 0 -47 -4 -54
-8z m83 -62 c9 -29 -4 -62 -23 -58 -12 2 -18 15 -20 41 -3 31 0 37 17 37 11 0
22 -9 26 -20z"/>
<path d="M7770 6694 c0 -135 0 -135 23 -132 18 2 23 10 25 46 4 57 29 53 47
-8 9 -28 22 -40 48 -40 21 0 22 28 2 54 -19 25 -19 55 0 80 24 32 19 83 -11
111 -22 20 -37 25 -80 25 l-54 0 0 -136z m98 47 c-2 -18 -10 -27 -25 -29 -20
-3 -23 1 -23 31 0 20 6 37 13 40 20 7 38 -14 35 -42z"/>
<path d="M7987 6818 c-16 -12 -17 -28 -15 -133 l3 -120 68 -3 c66 -3 68 -2 65
20 -2 18 -11 24 -38 28 -31 4 -35 9 -38 38 -3 28 0 32 22 32 36 0 41 17 9 32
-31 15 -43 55 -21 69 7 5 26 9 41 9 22 0 28 4 25 18 -4 22 -94 30 -121 10z"/>
<path d="M8257 6812 c-19 -21 -23 -67 -7 -77 6 -4 3 -17 -10 -35 -12 -17 -20
-44 -20 -68 0 -37 3 -41 40 -56 28 -11 47 -13 63 -7 14 5 43 7 66 4 33 -5 41
-3 41 10 0 9 -5 19 -10 22 -6 4 -9 23 -8 43 3 35 2 37 -26 34 -51 -6 -59 3
-36 40 11 18 20 43 20 55 0 46 -81 71 -113 35z m53 -42 c0 -5 -2 -10 -4 -10
-3 0 -8 5 -11 10 -3 6 -1 10 4 10 6 0 11 -4 11 -10z m3 -129 c3 -11 2 -22 -1
-25 -8 -9 -32 14 -32 30 0 21 27 17 33 -5z"/>
<path d="M8545 6808 c-3 -13 -5 -72 -3 -133 3 -102 4 -110 23 -110 16 0 21 8
23 40 4 47 27 77 56 73 18 -3 21 -11 24 -55 3 -51 23 -76 44 -55 5 5 7 62 6
128 -3 111 -4 119 -23 119 -16 0 -21 -8 -23 -42 -4 -50 -22 -69 -51 -53 -20
10 -27 28 -33 80 -4 33 -35 39 -43 8z"/>
<path d="M8796 6799 c-23 -27 -26 -39 -26 -106 0 -69 2 -77 29 -104 42 -41 92
-40 132 2 27 28 29 37 29 104 0 69 -2 75 -31 104 -43 43 -97 43 -133 0z m98
-41 c33 -47 10 -148 -33 -148 -40 0 -58 114 -25 151 22 25 39 24 58 -3z"/>
<path d="M9025 6813 c-47 -46 -35 -98 31 -141 47 -31 42 -56 -11 -60 -22 -2
-44 -7 -48 -11 -16 -15 24 -41 63 -41 47 0 80 36 80 84 -1 24 -10 38 -40 61
-30 23 -39 36 -37 55 2 21 7 25 34 26 40 0 50 9 33 29 -17 20 -84 19 -105 -2z"/>
<path d="M9195 6818 c-3 -8 -4 -68 -3 -134 2 -97 6 -119 18 -119 9 0 17 14 21
39 7 41 21 56 55 56 33 0 54 31 54 82 0 58 -23 79 -90 86 -37 3 -51 1 -55 -10z
m91 -70 c8 -27 -24 -62 -43 -47 -16 14 -17 61 -1 77 14 14 34 0 44 -30z"/>
<path d="M9390 6820 c-10 -6 -13 -38 -11 -126 1 -119 7 -141 35 -131 12 5 15
30 18 119 2 62 2 118 0 125 -5 16 -26 23 -42 13z"/>
<path d="M9477 6824 c-14 -15 -6 -33 16 -36 21 -3 22 -8 27 -113 5 -102 7
-110 25 -110 19 0 20 8 23 106 3 105 3 107 28 113 17 5 24 12 22 24 -3 14 -16
18 -69 20 -35 2 -68 0 -72 -4z"/>
<path d="M9695 6810 c-10 -11 -21 -36 -25 -57 -5 -21 -17 -69 -28 -108 -11
-38 -18 -73 -16 -77 10 -16 34 -7 50 17 24 36 80 36 94 -1 7 -16 16 -24 28
-22 22 4 21 42 -2 123 -10 33 -22 75 -26 94 -13 52 -44 65 -75 31z m47 -108
c5 -36 0 -52 -17 -52 -22 0 -28 19 -15 51 16 37 27 37 32 1z"/>
<path d="M9870 6811 c-5 -11 -10 -69 -10 -129 0 -123 0 -122 73 -122 50 0 72
12 64 34 -4 10 -19 16 -42 16 l-35 0 0 88 c0 48 -3 97 -6 110 -8 27 -30 29
-44 3z"/>
<path d="M10093 6822 c-19 -12 -77 -207 -71 -238 5 -30 36 -30 48 0 13 36 61
36 84 0 19 -28 63 -31 59 -4 -3 24 -24 103 -33 125 -5 11 -11 35 -14 54 -10
54 -42 83 -73 63z m35 -121 c8 -23 7 -32 -3 -41 -27 -22 -45 12 -29 54 9 24
21 19 32 -13z"/>
<path d="M10257 6823 c-4 -3 -7 -64 -7 -135 0 -128 0 -129 23 -126 19 3 22 10
25 51 4 65 20 57 62 -33 4 -8 19 -16 34 -18 21 -3 26 1 26 17 0 12 -4 21 -9
21 -5 0 -14 14 -21 31 -10 24 -10 35 0 55 7 13 17 24 22 24 4 0 8 15 8 34 0
50 -46 86 -109 86 -26 0 -51 -3 -54 -7z m80 -41 c12 -7 16 -25 14 -54 -1 -12
-9 -18 -26 -18 -22 0 -25 4 -25 33 0 44 11 56 37 39z"/>
</g>
</svg>
